<?xml version="1.0" standalone="no"?>
<!DOCTYPE svg PUBLIC "-//W3C//DTD SVG 20010904//EN"
 "http://www.w3.org/TR/2001/REC-SVG-20010904/DTD/svg10.dtd">
<svg version="1.0" xmlns="http://www.w3.org/2000/svg"
 width="200.000000pt" height="200.000000pt" viewBox="0 0 200.000000 200.000000"
 preserveAspectRatio="xMidYMid meet">

<g transform="translate(0.000000,200.000000) scale(0.100000,-0.100000)"
fill="#000000" stroke="none">
<path d="M0 1000 l0 -1000 1000 0 1000 0 0 1000 0 1000 -1000 0 -1000 0 0
-1000z m1618 868 c30 -30 2 -70 -34 -50 -13 7 -41 -1 -113 -35 -52 -24 -103
-51 -113 -60 -18 -16 -24 -8 -10 13 8 13 182 94 201 94 6 0 11 9 11 19 0 29
37 40 58 19z m-1059 -162 c31 -52 85 -144 120 -203 35 -59 77 -127 93 -150 31
-46 39 -80 10 -42 -17 22 -144 228 -229 372 -34 57 -72 138 -58 125 4 -4 33
-50 64 -102z m4 56 c15 -26 39 -61 51 -79 21 -28 26 -31 42 -19 17 13 17 15
-1 42 -13 20 -14 25 -3 17 8 -7 19 -9 23 -5 5 4 5 2 1 -5 -8 -14 34 -83 50
-83 11 0 81 31 224 98 50 23 95 37 134 40 85 7 128 -19 190 -114 27 -41 54
-73 60 -71 6 2 21 30 32 63 23 64 31 71 155 130 38 18 69 30 69 26 0 -4 -41
-28 -91 -52 -75 -37 -94 -51 -105 -77 -8 -18 -14 -42 -14 -53 0 -11 -9 -29
-21 -41 -42 -42 -10 -34 126 32 110 53 141 73 145 91 8 34 55 33 55 -2 0 -19
-7 -26 -30 -31 -16 -3 -92 -37 -168 -75 -116 -58 -136 -72 -124 -82 12 -10 22
-10 51 3 20 8 52 22 71 30 19 8 35 12 35 9 0 -8 -143 -74 -161 -74 -9 0 -45
44 -87 110 -115 178 -144 185 -357 85 -77 -36 -148 -64 -157 -61 -23 5 -23 3
8 -50 35 -59 24 -56 -21 7 -50 69 -56 55 -9 -23 46 -78 46 -78 41 -78 -3 0
-25 30 -51 68 -59 85 -72 102 -79 102 -9 0 40 -81 113 -191 34 -49 60 -95 58
-101 -4 -10 -98 133 -230 347 -71 117 -71 115 -61 115 4 0 21 -21 36 -48z
m-22 -99 c34 -60 73 -126 86 -148 61 -100 143 -245 143 -250 0 -17 -22 13 -69
95 -29 49 -54 90 -57 90 -2 0 -40 -18 -84 -40 -44 -22 -83 -40 -87 -40 -5 1
15 12 42 26 28 15 60 32 72 40 l22 14 -56 92 c-30 51 -68 115 -84 142 -17 27
-27 51 -24 54 6 7 0 16 69 -103 77 -130 107 -175 117 -175 14 0 11 9 -12 41
-23 33 -132 225 -142 252 -14 38 4 12 64 -90z m184 48 c-20 -20 -40 -1 -30 29
7 21 8 21 26 4 18 -16 18 -19 4 -33z m399 -34 c21 -15 15 -51 -10 -61 -24 -9
-54 12 -54 39 l0 24 -42 -18 c-133 -58 -160 -73 -149 -84 13 -13 14 -27 3 -27
-5 0 -14 11 -20 25 -6 14 -8 24 -4 23 4 -1 23 7 42 17 127 70 198 89 234 62z
m360 -2 c-4 -8 -12 -15 -20 -15 -8 0 -14 7 -14 15 0 8 9 15 20 15 13 0 18 -5
14 -15z m-1010 -41 c9 -3 16 -15 16 -26 0 -11 13 -38 29 -62 l29 -42 -104 -52
c-108 -54 -144 -89 -144 -140 0 -12 18 -52 40 -88 22 -36 40 -67 40 -69 0 -1
16 -29 35 -61 20 -32 33 -64 31 -71 -3 -7 0 -12 6 -10 7 1 14 -6 16 -15 7 -36
-24 -17 -50 30 -154 279 -150 271 -144 307 10 53 48 89 143 136 49 24 90 45
92 46 11 7 -36 73 -51 73 -21 0 -32 16 -24 35 6 16 16 18 40 9z m365 -94 c17
-28 27 -50 23 -50 -4 0 -14 10 -21 23 -40 62 -54 90 -44 84 6 -4 25 -30 42
-57z m121 56 c0 -2 -7 -7 -16 -10 -8 -3 -12 -2 -9 4 6 10 25 14 25 6z m86 -14
c-2 -4 -33 -21 -68 -37 -35 -17 -65 -34 -66 -38 -4 -9 -32 11 -32 23 0 5 8 6
18 4 9 -2 44 9 77 25 63 31 79 36 71 23z m125 -12 c21 -12 25 -50 9 -81 -22
-40 -110 -12 -110 36 0 46 53 70 101 45z m559 5 c0 -16 -180 -105 -344 -171
-68 -27 -66 -27 -66 -15 0 5 12 12 26 15 21 6 155 67 339 155 46 23 45 22 45
16z m-140 -26 c0 -5 -4 -9 -10 -9 -5 0 -10 7 -10 16 0 8 5 12 10 9 6 -3 10
-10 10 -16z m232 -9 c-17 -11 -59 -34 -93 -50 -34 -17 -59 -36 -56 -43 2 -7
-3 -18 -12 -25 -13 -10 -12 -11 9 -3 14 5 46 18 73 30 26 11 47 18 47 15 0 -6
-326 -164 -338 -164 -4 0 -20 -7 -36 -15 -16 -9 -31 -13 -34 -10 -7 6 -15 1
106 60 103 50 131 69 115 78 -8 5 -121 -41 -245 -101 -5 -2 -8 1 -8 6 0 5 48
32 106 61 59 28 105 54 102 56 -2 2 -53 -16 -112 -40 -117 -49 -120 -50 -111
-36 3 5 42 24 88 41 45 18 102 42 127 55 46 24 118 55 128 55 3 0 -3 -7 -14
-15 -37 -28 8 -16 91 24 87 43 119 53 67 21z m-262 -8 c0 -10 -11 -15 -152
-78 -54 -23 -98 -40 -98 -36 0 7 225 119 243 121 4 1 7 -3 7 -7z m-538 -70
l17 -29 -37 -24 c-27 -18 -38 -33 -43 -59 -4 -19 -19 -73 -34 -120 -15 -47
-34 -111 -42 -142 -9 -32 -19 -58 -24 -58 -4 0 -57 23 -116 51 -59 29 -153 71
-208 95 -55 24 -101 47 -102 51 -4 10 80 53 102 53 9 0 73 -29 143 -64 l128
-64 43 158 44 158 46 19 c50 21 57 19 83 -25z m283 28 c7 -23 -1 -40 -20 -40
-21 0 -45 29 -39 45 9 22 51 19 59 -5z m-485 -35 c7 -9 8 -15 2 -15 -5 0 -12
7 -16 15 -3 8 -4 15 -2 15 2 0 9 -7 16 -15z m493 -135 c48 -82 87 -153 87
-157 0 -5 -17 -16 -37 -26 -29 -13 -39 -14 -45 -4 -5 6 -48 75 -97 152 l-89
140 37 22 c20 13 41 23 46 22 6 0 49 -67 98 -149z m-734 137 c-13 -11 -192
-97 -184 -89 13 13 166 92 179 92 5 0 7 -2 5 -3z m-9 -82 c-47 -24 -89 -44
-95 -44 -5 0 28 20 75 44 47 24 90 44 95 44 6 0 -28 -20 -75 -44z m575 -126
c50 -83 91 -154 93 -159 3 -8 -79 -54 -83 -47 0 1 -19 31 -42 67 -101 160
-134 221 -129 238 5 14 49 49 66 51 3 0 46 -67 95 -150z m-497 132 c-2 -5 6
-16 16 -24 23 -17 15 -47 -12 -47 -11 0 -26 10 -34 21 l-14 22 -88 -42 c-49
-23 -91 -40 -93 -37 -3 3 10 11 28 19 19 8 60 27 92 41 31 14 61 25 65 25 16
-3 32 1 31 9 -2 12 1 22 6 22 3 0 4 -4 3 -9z m1062 4 c0 -13 -298 -151 -307
-141 -3 2 31 21 74 41 43 21 110 53 148 71 69 33 85 39 85 29z m5 -57 c-80
-41 -295 -128 -295 -119 0 7 142 71 159 71 5 0 46 18 92 39 100 47 129 53 44
9z m-1304 -31 c-8 -8 -16 -9 -29 -1 -25 16 -21 37 8 44 19 5 26 2 28 -13 2
-11 -1 -24 -7 -30z m1459 48 c0 -13 -279 -139 -288 -130 -5 4 41 26 133 63 22
9 65 28 95 43 63 32 60 31 60 24z m-281 -170 c23 -33 41 -69 40 -80 -1 -17 -2
-16 -9 5 l-8 25 -2 -25 c-1 -25 -1 -25 -10 -3 -5 13 -25 46 -44 75 -25 37 -32
54 -24 60 7 4 13 6 15 5 1 -1 20 -29 42 -62z m161 45 c12 -8 11 -10 -5 -10
-12 0 -26 -5 -33 -12 -9 -9 -12 -8 -12 4 0 14 12 25 30 27 3 0 12 -4 20 -9z
m-1579 -10 c10 -6 19 -21 18 -33 l0 -22 -11 23 c-12 25 -55 30 -78 10 -8 -7
-6 -3 4 10 21 24 37 27 67 12z m-11 -34 c0 -3 -4 -8 -10 -11 -5 -3 -10 -1 -10
4 0 6 5 11 10 11 6 0 10 -2 10 -4z m462 -60 c4 3 5 -1 2 -9 -2 -7 27 -69 66
-137 39 -67 68 -126 65 -129 -4 -3 -11 2 -16 12 -6 9 -14 15 -19 12 -4 -3 -10
2 -13 10 -4 10 -1 12 11 8 14 -6 15 -5 2 9 -8 9 -17 13 -20 9 -3 -3 -14 -13
-24 -21 -16 -12 -18 -12 -11 -1 6 11 3 13 -13 9 -12 -4 -22 -2 -22 3 0 5 -15
30 -34 56 -36 52 -136 217 -136 226 0 2 35 -10 77 -28 42 -19 80 -32 85 -29z
m-497 15 c-6 -5 -25 10 -25 20 0 5 6 4 14 -3 8 -7 12 -15 11 -17z m806 2 c-12
-20 -14 -14 -5 12 4 9 9 14 11 11 3 -2 0 -13 -6 -23z m-756 7 c-3 -5 -12 -10
-18 -10 -7 0 -6 4 3 10 19 12 23 12 15 0z m1335 -24 c19 -23 8 -61 -18 -64
-30 -4 -52 14 -52 43 0 34 47 48 70 21z m-1315 -36 c9 -16 13 -30 11 -30 -3 0
-12 14 -21 30 -9 17 -13 30 -11 30 3 0 12 -13 21 -30z m492 8 c39 -23 185 -89
189 -85 1 1 11 27 23 57 12 30 19 42 16 26 -4 -17 -13 -45 -20 -64 -12 -28
-18 -32 -37 -27 -31 10 -201 94 -212 106 -17 16 1 10 41 -13z m631 -69 c3 -11
2 -11 -7 1 -10 13 -12 13 -21 0 -5 -8 -10 -10 -10 -4 0 27 31 30 38 3z m-1045
-1 c-2 -5 -10 -8 -18 -8 -8 0 -16 3 -18 8 -3 4 5 7 18 7 13 0 21 -3 18 -7z
m1007 -40 c13 -24 37 -62 53 -86 16 -24 27 -45 25 -47 -2 -3 -27 30 -55 73
-64 99 -66 102 -55 102 4 0 19 -19 32 -42z m320 39 c0 -2 -15 -16 -32 -33
l-33 -29 29 33 c28 30 36 37 36 29z m-555 -17 c4 -6 3 -10 -2 -9 -21 4 -33 -2
-33 -17 0 -12 7 -15 25 -12 14 3 25 1 25 -3 0 -15 -50 -10 -56 6 -13 33 24 63
41 35z m-708 -26 c-27 -14 -51 -24 -53 -22 -5 5 78 48 91 47 6 0 -12 -11 -38
-25z m930 -56 c66 -113 65 -120 -1 -18 -52 78 -63 100 -52 100 2 0 26 -37 53
-82z m-122 -18 c20 -36 46 -80 58 -99 11 -19 16 -31 9 -27 -6 4 -37 50 -68
104 -70 120 -70 120 -51 102 9 -8 32 -44 52 -80z m-655 51 c0 -6 -4 -13 -10
-16 -5 -3 -10 1 -10 9 0 9 5 16 10 16 6 0 10 -4 10 -9z m1035 -1 c-3 -5 -12
-10 -18 -10 -7 0 -6 4 3 10 19 12 23 12 15 0z m-1105 -4 c0 -5 -88 -46 -97
-46 -9 1 78 49 90 50 4 0 7 -2 7 -4z m565 -6 c12 -20 -6 -50 -30 -50 -15 0
-26 7 -30 20 -9 27 1 40 30 40 13 0 27 -5 30 -10z m295 -134 c0 -5 -20 22 -45
60 -24 38 -45 73 -45 78 0 5 20 -22 45 -60 24 -38 45 -73 45 -78z m206 125
c-3 -4 -19 -14 -36 -21 -24 -10 -28 -15 -18 -22 9 -6 6 -7 -10 -3 -15 4 -24 1
-28 -10 -5 -13 -9 -14 -15 -4 -5 8 10 21 49 40 67 32 65 31 58 20z m-952 -65
c-4 -12 -2 -16 5 -12 12 8 15 -6 5 -17 -15 -14 -59 66 -48 85 11 17 44 -34 38
-56z m600 -28 c25 -45 44 -83 42 -85 -2 -2 -23 30 -46 72 -24 41 -50 75 -57
75 -8 0 -11 5 -8 10 12 20 23 9 69 -72z m666 62 c0 -5 -9 -12 -20 -15 -29 -9
-25 -28 5 -21 29 7 34 -8 8 -23 -26 -14 -9 -25 17 -11 32 17 39 2 10 -20 -36
-28 -42 -25 -72 25 l-28 45 32 20 c30 18 48 18 48 0z m-1355 -13 c-11 -8 -42
-22 -68 -32 -26 -10 -50 -23 -54 -28 -4 -6 0 -8 10 -4 9 3 17 1 19 -5 2 -6 27
0 62 16 32 15 61 24 65 21 6 -7 -4 -15 -69 -55 -23 -13 -36 -26 -29 -29 8 -2
7 -6 -2 -12 -7 -4 -11 -11 -7 -14 3 -4 15 2 25 12 28 26 78 53 100 53 10 -1
-3 -12 -31 -27 -27 -14 -57 -34 -65 -44 -15 -18 -159 -84 -167 -77 -2 2 23 17
56 34 32 16 59 31 60 34 1 14 -60 5 -118 -16 -35 -14 -66 -23 -68 -22 -1 2 22
16 52 32 36 19 54 35 54 47 0 11 9 28 20 39 11 11 17 20 13 21 -13 1 131 68
147 69 10 0 9 -4 -5 -13z m645 -56 c-1 -3 -11 6 -23 22 l-23 28 -60 -32 c-58
-31 -143 -47 -124 -23 5 6 22 9 37 7 19 -2 48 8 88 31 l59 34 23 -31 c13 -17
23 -33 23 -36z m635 -1 c24 -27 13 -64 -25 -80 -17 -7 -32 -11 -34 -9 -1 2
-13 22 -25 44 -22 37 -22 40 -5 52 26 19 68 16 89 -7z m-1145 -25 c14 -19 14
-19 -2 -6 -10 7 -18 18 -18 24 0 6 1 8 3 6 1 -2 9 -13 17 -24z m500 -32 c16
-29 26 -53 22 -53 -4 0 -18 20 -31 45 -15 29 -30 45 -43 45 -10 0 -50 -16 -88
-35 -39 -19 -70 -33 -70 -30 0 9 155 84 168 82 8 -1 27 -26 42 -54z m40 6 c12
-23 20 -43 18 -45 -3 -2 -14 17 -26 41 -27 56 -20 60 8 4z m-233 15 c-3 -3
-12 -4 -19 -1 -8 3 -5 6 6 6 11 1 17 -2 13 -5z m721 -10 c40 -28 16 -94 -35
-94 -26 0 -63 32 -63 55 0 21 36 55 58 55 10 0 28 -7 40 -16z m-1093 -24 c-3
-5 -11 -10 -16 -10 -5 0 -38 -18 -73 -40 -35 -22 -69 -40 -77 -40 -8 1 4 10
26 22 22 11 49 29 60 39 30 27 93 50 80 29z m538 -25 c23 -49 21 -57 -4 -17
-12 17 -26 32 -32 32 -7 0 -41 -14 -75 -30 -35 -17 -67 -30 -70 -29 -10 1 140
77 154 78 6 1 18 -15 27 -34z m437 5 c0 -5 -9 -10 -20 -10 -29 0 -44 -34 -24
-54 19 -19 19 -19 44 -4 24 15 37 4 20 -17 -27 -33 -100 -4 -100 40 0 13 7 31
16 39 17 18 64 22 64 6z m343 -7 c-15 -5 -18 -33 -4 -33 5 0 12 6 14 13 4 9 6
9 6 0 1 -17 -19 -27 -31 -15 -13 13 -3 42 14 41 10 0 10 -2 1 -6z m-808 -33
c3 -5 1 -10 -4 -10 -6 0 -11 5 -11 10 0 6 2 10 4 10 3 0 8 -4 11 -10z m755
-28 c-12 -2 -17 -8 -14 -14 4 -7 2 -8 -4 -4 -7 4 -12 13 -12 21 0 17 32 25 42
10 4 -6 -1 -11 -12 -13z m-820 -2 c-8 -5 -19 -10 -25 -10 -5 0 -3 5 5 10 8 5
20 10 25 10 6 0 3 -5 -5 -10z m389 -12 c8 -13 21 -34 30 -47 15 -24 15 -24
-14 -18 -17 3 -39 9 -49 13 -20 8 -20 8 1 -43 3 -7 1 -13 -5 -13 -6 0 -24 23
-41 50 -34 55 -28 62 34 36 l35 -15 -15 30 c-19 36 2 42 24 7z m360 -30 c1 -5
-7 0 -17 10 -12 11 -14 19 -8 24 10 6 23 -13 25 -34z m29 17 c-3 -3 -9 2 -12
12 -6 14 -5 15 5 6 7 -7 10 -15 7 -18z m-1335 9 c9 -10 -4 -34 -19 -34 -8 0
-14 9 -14 20 0 19 19 27 33 14z m1260 -34 c9 -11 13 -20 7 -20 -5 0 -14 9 -20
20 -6 11 -9 20 -8 20 2 0 11 -9 21 -20z m-420 -27 c39 -63 39 -63 24 -63 -13
0 -67 77 -67 94 0 18 23 1 43 -31z m397 0 c0 -20 -37 -15 -45 5 -5 14 -4 15 6
5 20 -20 31 -15 24 10 -5 17 -4 19 4 7 6 -8 11 -21 11 -27z m-852 10 c-10 -2
-26 -2 -35 0 -10 3 -2 5 17 5 19 0 27 -2 18 -5z m357 -23 c3 -5 -5 -15 -19
-22 -26 -11 -35 -28 -15 -28 6 0 19 5 30 10 15 8 19 7 19 -3 0 -8 -9 -17 -21
-20 -12 -3 -18 -10 -14 -16 4 -8 12 -8 25 -1 23 12 40 13 40 2 0 -5 -16 -16
-35 -25 l-34 -16 -26 43 c-14 23 -25 46 -25 49 0 7 50 36 62 37 4 0 10 -4 13
-10z m445 -15 c0 -8 -5 -15 -11 -15 -5 0 -8 4 -5 9 4 5 0 12 -6 14 -8 3 -6 6
5 6 9 1 17 -6 17 -14z m-40 -17 c0 -5 -7 -8 -15 -4 -8 3 -15 0 -15 -7 0 -7 -4
-6 -10 3 -7 11 -5 17 8 21 20 7 32 2 32 -13z m-57 -12 c7 -18 -11 -36 -29 -29
-8 3 -14 14 -14 24 0 22 35 26 43 5z m-429 -28 c23 -32 20 -54 -11 -78 -33
-26 -43 -23 -70 26 -28 48 -28 49 0 62 36 17 65 14 81 -10z m357 8 c-14 -17 2
-31 22 -20 9 5 9 4 -1 -7 -10 -11 -15 -11 -28 3 -16 16 -12 38 8 38 7 0 6 -5
-1 -14z m-61 -37 c0 -5 5 -7 10 -4 6 3 10 -1 10 -9 0 -19 -11 -21 -28 -4 -15
15 -16 28 -2 28 6 0 10 -5 10 -11z m-410 -50 c37 -34 41 -40 21 -35 -29 6 -61
-9 -61 -29 0 -8 -4 -15 -10 -15 -6 0 -10 27 -10 60 0 33 3 60 8 60 4 0 27 -19
52 -41z m335 21 c-3 -5 1 -10 9 -10 19 0 21 -16 4 -26 -6 -4 -8 -3 -5 3 4 6 0
13 -8 17 -17 6 -20 26 -4 26 5 0 7 -4 4 -10z m-420 -118 c-3 -4 -15 4 -25 18
l-20 25 0 -28 c0 -25 -2 -27 -21 -17 -26 15 -34 7 -19 -19 8 -17 8 -21 -3 -21
-8 0 -26 23 -41 50 -30 55 -23 62 30 29 l34 -21 0 30 c0 64 11 67 43 12 16
-28 26 -54 22 -58z m405 78 c0 -12 -40 -5 -45 8 -3 10 0 12 10 8 8 -3 15 0 15
7 0 11 19 -11 20 -23z m-926 -9 c4 -5 -3 -7 -14 -4 -23 6 -26 13 -6 13 8 0 17
-4 20 -9z m870 0 c4 -5 -4 -7 -16 -3 -18 4 -20 2 -14 -14 5 -14 4 -16 -5 -7
-6 6 -8 16 -5 22 9 13 33 14 40 2z m-54 -36 c14 -19 14 -19 -2 -6 -10 7 -18
18 -18 24 0 6 1 8 3 6 1 -2 9 -13 17 -24z m-34 -4 c0 -16 -3 -17 -14 -9 -10 9
-16 8 -23 -3 -5 -9 -9 -10 -9 -2 0 11 26 32 40 33 3 0 6 -9 6 -19z m-37 -36
c6 3 11 1 11 -4 0 -20 -29 -11 -40 12 -10 21 -10 21 4 3 8 -10 19 -15 25 -11z
m-35 -34 c-5 -6 -34 20 -34 30 0 5 8 1 18 -8 10 -10 17 -20 16 -22z m-34 -2
c0 -15 -30 -23 -42 -11 -6 6 -8 18 -4 27 4 13 10 14 26 5 11 -6 20 -15 20 -21z
m-70 -3 c0 -3 -4 -8 -10 -11 -5 -3 -10 -1 -10 4 0 6 5 11 10 11 6 0 10 -2 10
-4z m20 -26 c0 -5 -4 -10 -10 -10 -5 0 -10 5 -10 10 0 6 5 10 10 10 6 0 10 -4
10 -10z m-70 -25 c7 -9 8 -15 2 -15 -5 0 -12 7 -16 15 -3 8 -4 15 -2 15 2 0 9
-7 16 -15z m-41 -9 c9 -10 8 -16 -4 -26 -13 -11 -15 -8 -15 14 0 30 3 32 19
12z"/>
<path d="M1580 1845 c0 -8 9 -15 20 -15 11 0 20 7 20 15 0 8 -9 15 -20 15 -11
0 -20 -7 -20 -15z"/>
<path d="M1642 1698 c7 -19 38 -22 38 -4 0 10 -9 16 -21 16 -12 0 -19 -5 -17
-12z"/>
<path d="M666 1661 c-8 -12 10 -41 25 -41 13 0 11 13 -4 35 -10 13 -16 15 -21
6z"/>
<path d="M1080 1651 c0 -15 6 -21 21 -21 14 0 19 5 17 17 -5 26 -38 29 -38 4z"/>
<path d="M450 1610 c0 -5 5 -10 10 -10 6 0 10 5 10 10 0 6 -4 10 -10 10 -5 0
-10 -4 -10 -10z"/>
<path d="M844 1135 c36 -19 47 -19 22 0 -11 8 -27 15 -35 15 -9 0 -3 -7 13
-15z"/>
<path d="M1264 1489 c-8 -14 11 -33 25 -25 11 7 4 36 -9 36 -5 0 -12 -5 -16
-11z"/>
<path d="M630 1335 c0 -10 7 -15 18 -13 21 4 19 22 -2 26 -10 2 -16 -3 -16
-13z"/>
<path d="M376 1321 c-3 -5 1 -11 9 -15 15 -6 29 7 18 18 -9 9 -21 8 -27 -3z"/>
<path d="M1454 1095 c-4 -9 -2 -21 4 -27 16 -16 47 -5 47 17 0 26 -42 34 -51
10z"/>
<path d="M935 930 c-4 -7 -3 -16 3 -22 14 -14 45 -2 40 15 -6 16 -34 21 -43 7z"/>
<path d="M1655 820 c-7 -11 16 -50 30 -50 22 0 34 22 24 42 -10 19 -44 25 -54
8z"/>
<path d="M1540 746 c0 -38 50 -45 64 -9 9 22 -2 33 -35 33 -24 0 -29 -4 -29
-24z"/>
<path d="M1462 531 c4 -13 18 -16 19 -4 0 4 -5 9 -11 12 -7 2 -11 -2 -8 -8z"/>
<path d="M1008 503 c-10 -2 -18 -8 -18 -13 0 -4 8 -17 18 -29 15 -19 19 -20
36 -8 15 11 17 17 7 35 -6 12 -15 21 -19 21 -4 -1 -15 -3 -24 -6z"/>
<path d="M910 416 c0 -9 5 -16 10 -16 6 0 10 4 10 9 0 6 -4 13 -10 16 -5 3
-10 -1 -10 -9z"/>
<path d="M980 290 c0 -5 7 -10 15 -10 8 0 15 5 15 10 0 6 -7 10 -15 10 -8 0
-15 -4 -15 -10z"/>
</g>
</svg>
