<?xml version="1.0" standalone="no"?>
<!DOCTYPE svg PUBLIC "-//W3C//DTD SVG 20010904//EN"
 "http://www.w3.org/TR/2001/REC-SVG-20010904/DTD/svg10.dtd">
<svg version="1.0" xmlns="http://www.w3.org/2000/svg"
 width="1692.000000pt" height="1684.000000pt" viewBox="0 0 1692.000000 1684.000000"
 preserveAspectRatio="xMidYMid meet">

<g transform="translate(0.000000,1684.000000) scale(0.100000,-0.100000)"
fill="#000000" stroke="none">
<path d="M3780 14209 c-36 -11 -94 -28 -130 -38 -36 -11 -105 -31 -155 -46
-161 -48 -365 -108 -562 -164 -38 -11 -138 -41 -223 -66 -85 -26 -184 -55
-220 -65 -146 -42 -169 -49 -270 -80 -58 -17 -135 -40 -172 -51 -159 -45 -211
-60 -358 -104 -85 -25 -180 -53 -210 -61 -30 -8 -73 -21 -95 -29 -22 -8 -74
-23 -115 -35 -97 -28 -229 -66 -305 -90 -33 -10 -94 -28 -135 -40 -186 -53
-335 -105 -357 -124 -17 -15 -27 -38 -34 -81 -14 -80 -32 -3356 -25 -4424 l6
-814 26 -34 c51 -67 80 -74 514 -123 96 -11 189 -22 205 -25 17 -4 109 -15
205 -26 96 -11 252 -29 345 -40 94 -11 216 -25 273 -31 56 -6 102 -15 102 -19
0 -10 -101 -23 -540 -69 -102 -11 -200 -22 -218 -25 -31 -6 -169 -21 -527 -60
-77 -8 -156 -19 -175 -24 -19 -5 -57 -13 -85 -17 -39 -5 -58 -15 -86 -43 l-36
-36 -7 -139 c-10 -196 3 -1365 16 -1451 13 -86 38 -113 130 -140 34 -10 90
-27 123 -37 56 -18 87 -27 262 -77 66 -19 93 -27 288 -86 50 -15 119 -35 155
-45 36 -11 135 -40 220 -65 85 -25 184 -54 220 -65 36 -10 106 -30 155 -45
181 -54 362 -107 425 -125 36 -10 97 -28 135 -40 82 -25 164 -49 290 -85 50
-14 119 -34 155 -45 36 -10 92 -26 125 -35 33 -9 69 -20 80 -25 11 -5 72 -23
135 -40 63 -17 145 -40 183 -51 37 -10 100 -28 140 -40 39 -11 92 -26 117 -34
105 -32 133 -35 195 -19 33 8 87 22 120 30 33 8 69 19 80 24 11 5 47 16 80 24
33 8 101 26 150 41 50 14 117 32 150 40 33 9 69 19 80 24 11 5 34 12 50 16 17
3 62 15 100 26 39 11 99 29 135 39 36 11 106 31 155 45 50 14 119 34 155 45
99 29 189 54 370 105 91 25 195 55 233 66 37 10 100 28 140 40 39 11 101 29
137 39 36 11 106 31 155 45 50 14 119 34 155 45 82 24 154 44 405 116 303 86
309 88 470 134 83 23 169 48 193 56 23 8 48 14 55 14 7 0 40 13 74 29 47 23
68 40 89 73 l27 43 11 -33 c17 -51 64 -102 113 -123 57 -24 144 -47 616 -159
126 -30 293 -70 382 -91 76 -19 142 -35 328 -79 45 -10 129 -30 187 -44 58
-14 146 -35 195 -47 50 -12 124 -29 165 -39 41 -10 116 -28 165 -39 50 -12
137 -33 195 -47 129 -31 244 -58 353 -83 45 -11 118 -28 162 -39 91 -22 272
-65 390 -93 44 -10 116 -27 160 -38 174 -42 350 -83 705 -165 111 -26 145 -22
580 79 173 40 276 64 370 85 47 10 123 28 170 39 47 11 137 32 200 46 164 38
268 62 365 85 47 11 122 29 168 39 45 10 134 31 197 46 63 15 151 35 195 45
93 21 236 54 350 81 44 10 130 30 190 43 61 14 151 35 200 47 85 20 147 34
338 78 45 10 134 31 197 46 63 15 152 36 198 46 45 10 120 28 167 39 47 11
122 29 168 39 220 51 411 96 518 123 64 17 109 47 145 99 l26 38 1 968 c2 902
1 970 -15 1000 -26 46 -70 73 -135 83 -144 21 -252 32 -443 45 -113 8 -302 21
-420 29 -118 9 -262 20 -320 26 -58 6 -211 17 -340 25 -129 8 -282 20 -340 25
-58 6 -127 11 -155 13 l-50 2 -3 1381 -2 1381 46 7 c26 3 71 6 100 6 29 0 86
4 126 10 40 5 186 16 323 25 138 8 295 20 350 26 93 9 175 15 735 54 359 25
430 38 485 92 67 65 65 46 64 662 -1 306 -4 734 -8 951 -6 369 -7 397 -26 428
-27 44 -81 78 -157 97 -200 50 -448 109 -695 166 -184 42 -252 58 -333 77
-125 30 -303 71 -397 93 -46 10 -120 28 -165 38 -46 10 -135 31 -198 46 -63
15 -152 36 -197 46 -184 42 -252 58 -333 77 -92 22 -262 61 -405 94 -49 11
-127 29 -172 39 -46 10 -120 28 -165 38 -46 10 -135 31 -198 46 -63 15 -152
36 -197 46 -46 10 -122 28 -170 40 -49 11 -126 29 -173 39 -47 10 -137 31
-200 45 -425 97 -433 98 -521 80 -194 -41 -533 -119 -884 -203 -44 -11 -132
-32 -195 -47 -63 -15 -153 -36 -200 -47 -47 -11 -119 -28 -160 -38 -41 -10
-113 -27 -160 -38 -47 -11 -137 -32 -200 -47 -63 -15 -151 -36 -195 -47 -113
-27 -229 -54 -310 -72 -38 -9 -95 -22 -125 -31 -30 -8 -93 -23 -140 -34 -47
-11 -143 -34 -215 -51 -142 -34 -248 -59 -382 -90 -49 -12 -106 -25 -128 -31
-22 -6 -77 -19 -122 -30 -46 -10 -120 -28 -165 -38 -46 -11 -101 -24 -123 -30
-22 -6 -98 -24 -170 -41 -71 -17 -142 -36 -156 -41 -31 -12 -101 -83 -122
-123 l-15 -30 -15 31 c-19 37 -63 75 -103 90 -45 17 -122 40 -324 98 -102 29
-207 60 -235 68 -58 18 -127 38 -355 102 -91 26 -192 55 -225 65 -33 11 -134
40 -225 65 -176 49 -266 75 -370 105 -159 47 -316 92 -447 129 -40 12 -104 30
-143 41 -38 11 -103 29 -142 41 -40 11 -102 29 -138 39 -64 19 -130 37 -240
66 -30 8 -64 19 -75 24 -11 6 -47 16 -80 25 -57 14 -154 41 -310 86 -38 12
-99 29 -135 38 -36 10 -72 20 -80 24 -34 14 -154 37 -193 36 -23 0 -71 -9
-107 -20z m-60 -3415 l0 -3007 -57 6 c-53 5 -181 20 -668 78 -93 11 -246 29
-340 40 -93 11 -244 29 -335 39 -91 10 -241 28 -335 39 -93 11 -269 32 -390
46 -284 33 -519 61 -673 80 -67 8 -127 17 -132 20 -7 4 -10 856 -10 2404 l0
2399 28 10 c15 6 99 32 187 58 187 54 320 93 750 219 50 15 149 44 220 65 141
41 255 75 393 116 48 14 139 41 202 59 63 18 153 44 200 58 124 37 248 74 395
117 72 21 202 59 290 85 215 64 248 73 263 74 9 1 12 -606 12 -3005z m556
2960 c88 -25 305 -88 484 -139 179 -51 379 -109 445 -128 66 -20 145 -42 175
-50 30 -8 93 -26 140 -40 47 -14 112 -33 145 -42 125 -34 203 -57 665 -190
261 -75 597 -172 745 -214 l270 -77 3 -3446 2 -3446 -72 -20 c-40 -11 -190
-54 -333 -95 -143 -41 -285 -82 -315 -90 -30 -8 -282 -80 -560 -160 -1000
-288 -1307 -376 -1415 -407 -60 -17 -139 -40 -175 -50 -222 -66 -376 -107
-382 -103 -11 6 -10 1431 0 1437 5 3 35 10 68 15 32 6 127 22 209 36 83 14
200 34 260 45 61 10 191 32 290 50 196 34 448 77 675 116 739 127 716 122 744
153 43 47 45 76 46 529 0 288 -4 448 -11 478 -14 53 -62 100 -115 110 -19 3
-95 -1 -167 -10 -133 -16 -325 -39 -492 -57 -49 -5 -164 -18 -255 -29 -171
-20 -358 -42 -740 -85 -124 -14 -277 -32 -341 -40 -63 -8 -129 -15 -147 -15
l-32 0 0 3005 c0 2552 2 3005 14 3005 7 0 85 -21 172 -46z m7464 -4334 c0
-3117 -3 -4250 -11 -4250 -6 0 -58 11 -115 25 -57 14 -151 36 -209 50 -58 14
-152 36 -210 50 -58 14 -151 36 -207 50 -190 45 -872 207 -953 226 -44 10
-118 28 -165 39 -47 11 -121 29 -165 39 -67 16 -969 231 -1030 246 -19 4 -117
27 -345 81 -58 14 -115 27 -127 30 l-23 4 0 3405 c0 1872 4 3406 8 3409 7 4
444 109 817 197 44 10 118 28 165 39 85 20 184 44 335 79 64 15 590 141 1100
262 110 27 220 53 350 83 61 14 259 61 440 105 182 44 333 80 338 80 4 1 7
-1911 7 -4249z m615 4215 c61 -14 137 -32 170 -40 33 -8 121 -28 195 -45 74
-17 162 -37 195 -45 33 -8 159 -38 280 -65 121 -28 247 -57 280 -65 33 -8 150
-35 260 -60 209 -48 265 -61 405 -94 47 -11 184 -43 305 -71 121 -27 247 -57
280 -65 33 -8 121 -28 195 -45 74 -17 162 -37 195 -45 76 -18 193 -46 365 -85
176 -40 266 -61 485 -113 l180 -43 3 -657 2 -657 -36 0 c-20 0 -134 11 -253
25 -441 52 -550 65 -716 84 -93 11 -271 32 -395 46 -124 14 -281 33 -350 42
-69 9 -174 17 -235 17 -102 1 -113 -1 -145 -24 -46 -33 -67 -57 -90 -105 -19
-39 -20 -89 -20 -2110 l0 -2070 30 -52 c18 -31 48 -64 71 -80 71 -47 89 -46
539 6 417 49 625 73 780 91 413 47 523 60 645 75 71 8 140 15 152 15 l23 0 0
-658 0 -659 -87 -21 c-49 -12 -187 -44 -308 -72 -121 -28 -247 -57 -280 -65
-33 -8 -159 -38 -280 -65 -121 -28 -247 -57 -280 -65 -33 -8 -150 -35 -260
-60 -243 -56 -295 -68 -405 -94 -47 -11 -146 -34 -220 -51 -74 -17 -162 -37
-195 -45 -84 -20 -207 -49 -365 -85 -74 -17 -162 -37 -195 -45 -33 -8 -159
-38 -280 -65 -121 -28 -247 -57 -280 -65 -137 -34 -493 -115 -504 -115 -8 0
-11 1103 -11 4250 l0 4250 23 -5 c12 -2 72 -16 132 -30z m-6340 -6190 l0 -180
-45 3 c-25 1 -110 11 -190 22 -80 11 -233 31 -340 45 -190 25 -345 45 -640 85
-80 11 -171 22 -202 26 -32 3 -58 9 -58 13 0 4 73 15 163 24 89 10 254 28 367
42 113 13 250 28 305 34 55 7 174 20 265 31 91 11 199 24 240 29 41 5 89 8
105 7 l30 -1 0 -180z m-2915 -174 c85 -11 241 -32 345 -46 105 -14 258 -34
340 -45 83 -11 218 -29 300 -40 83 -10 238 -31 345 -45 107 -14 262 -35 344
-45 81 -10 151 -21 154 -24 8 -8 -12 -13 -178 -41 -85 -14 -220 -37 -300 -51
-80 -14 -194 -34 -255 -44 -60 -10 -150 -26 -199 -34 -96 -17 -86 -18 -346 29
-80 14 -194 35 -255 45 -60 10 -175 31 -255 45 -80 14 -181 32 -225 40 -110
19 -278 48 -485 85 -96 17 -211 38 -255 45 -168 29 -236 42 -241 48 -7 7 42
14 206 32 306 32 606 66 615 70 20 9 192 -3 345 -24z m-2207 -276 c40 -8 113
-21 162 -29 50 -8 155 -27 235 -41 172 -31 344 -61 455 -80 44 -8 159 -28 255
-45 96 -17 225 -40 285 -50 61 -11 162 -29 225 -40 63 -11 165 -29 225 -40 61
-10 227 -40 370 -65 143 -25 310 -55 370 -65 61 -11 139 -25 175 -32 l65 -13
3 -714 c1 -393 -1 -718 -5 -722 -5 -4 -42 3 -83 16 -41 13 -109 33 -150 45
-41 12 -111 33 -155 46 -44 13 -204 60 -355 104 -151 44 -333 98 -405 119 -71
21 -179 53 -240 71 -60 18 -159 47 -220 65 -60 18 -191 56 -290 85 -99 28
-229 67 -290 85 -60 18 -157 47 -215 64 -350 102 -512 151 -520 156 -6 4 -10
209 -10 551 0 625 -15 555 113 529z"/>
<path d="M5615 12064 c-41 -21 -81 -61 -94 -93 -8 -18 -11 -406 -9 -1322 l3
-1296 27 -35 c54 -71 66 -73 408 -73 l305 0 45 25 c32 18 52 38 68 70 l22 45
-2 1250 c-3 1186 -4 1252 -21 1278 -10 16 -32 37 -50 47 -33 20 -54 25 -257
60 -69 12 -172 30 -229 41 -125 23 -176 24 -216 3z m403 -1461 l-3 -988 -67
-3 -68 -3 0 985 0 985 33 4 c17 2 49 5 70 5 l37 2 -2 -987z"/>
<path d="M868 3501 c-269 -86 -396 -399 -266 -655 24 -48 99 -129 153 -166 78
-53 150 -73 258 -71 122 3 143 2 245 -5 l82 -6 0 271 c0 167 -4 272 -10 276
-5 3 -77 3 -160 -1 l-150 -7 0 -78 0 -78 73 -3 72 -3 3 -77 3 -77 -43 -23
c-61 -31 -174 -31 -240 1 -109 53 -175 167 -166 285 9 107 63 187 160 235 101
51 211 40 307 -28 l28 -20 58 59 c31 32 55 63 51 68 -13 22 -116 82 -174 101
-79 27 -203 28 -284 2z"/>
<path d="M1870 3060 l0 -460 395 0 395 0 0 85 0 85 -310 0 -310 0 0 375 0 375
-85 0 -85 0 0 -460z"/>
<path d="M3518 3501 c-167 -54 -290 -198 -318 -373 -30 -193 75 -390 256 -479
67 -33 71 -34 199 -34 128 0 132 1 199 34 92 45 168 123 215 220 35 74 36 79
36 196 0 116 -1 123 -33 187 -60 122 -161 211 -283 249 -78 24 -194 24 -271 0z
m235 -167 c64 -22 139 -91 166 -154 25 -58 30 -148 10 -207 -57 -175 -264
-252 -425 -158 -211 123 -169 454 66 526 43 13 135 10 183 -7z"/>
<path d="M4650 3058 l0 -461 296 7 c325 7 334 9 402 70 53 49 85 124 86 203 0
50 -6 74 -33 126 l-32 64 25 37 c50 74 55 192 12 274 -22 41 -86 99 -136 121
-42 19 -65 21 -332 21 l-288 0 0 -462z m582 263 c27 -24 33 -36 33 -71 0 -35
-6 -47 -33 -71 l-32 -29 -190 0 -190 0 0 100 0 100 190 0 190 0 32 -29z m-27
-355 c33 -14 65 -59 65 -91 0 -29 -30 -74 -60 -90 -23 -12 -68 -15 -210 -15
l-180 0 0 105 0 105 175 0 c129 0 185 -4 210 -14z"/>
<path d="M6127 3069 c-90 -272 -145 -455 -139 -461 5 -5 44 -8 87 -6 l78 3 27
80 27 80 159 3 160 2 27 -85 28 -85 69 0 c73 0 100 6 100 22 0 5 -66 210 -146
454 l-146 444 -92 0 -91 0 -148 -451z m296 14 l45 -143 -99 0 c-55 0 -99 4
-99 9 0 27 93 292 100 285 4 -5 28 -73 53 -151z"/>
<path d="M7300 3060 l0 -460 395 0 395 0 0 85 0 85 -310 0 -310 0 0 375 0 375
-85 0 -85 0 0 -460z"/>
<path d="M8955 3506 c-172 -55 -301 -200 -325 -367 -47 -319 210 -576 530
-529 73 10 175 58 216 101 l28 29 -54 55 c-30 30 -58 55 -62 55 -5 0 -26 -13
-49 -29 -47 -35 -134 -56 -193 -47 -149 23 -250 141 -250 291 0 159 108 272
272 283 69 4 77 3 149 -33 l75 -37 56 55 c30 30 52 60 48 66 -15 23 -102 75
-165 97 -76 27 -208 32 -276 10z"/>
<path d="M10268 3501 c-167 -54 -290 -198 -318 -373 -30 -193 75 -390 256
-479 67 -33 71 -34 199 -34 128 0 132 1 199 34 92 45 168 123 215 220 35 74
36 79 36 196 0 116 -1 123 -33 187 -60 122 -161 211 -283 249 -78 24 -194 24
-271 0z m235 -167 c64 -22 139 -91 166 -154 25 -58 30 -148 10 -207 -57 -175
-264 -252 -425 -158 -211 123 -169 454 66 526 43 13 135 10 183 -7z"/>
<path d="M11400 3058 l0 -461 296 7 c325 7 334 9 402 70 53 49 85 124 86 203
0 50 -6 74 -33 126 l-32 64 25 37 c50 74 55 192 12 274 -22 41 -86 99 -136
121 -42 19 -65 21 -332 21 l-288 0 0 -462z m582 263 c27 -24 33 -36 33 -71 0
-35 -6 -47 -33 -71 l-32 -29 -190 0 -190 0 0 100 0 100 190 0 190 0 32 -29z
m-27 -355 c33 -14 65 -59 65 -91 0 -29 -30 -74 -60 -90 -23 -12 -68 -15 -210
-15 l-180 0 0 105 0 105 175 0 c129 0 185 -4 210 -14z"/>
<path d="M13048 3501 c-167 -54 -290 -198 -318 -373 -30 -193 75 -390 256
-479 67 -33 71 -34 199 -34 128 0 132 1 199 34 92 45 168 123 215 220 35 74
36 79 36 196 0 116 -1 123 -33 187 -60 122 -161 211 -283 249 -78 24 -194 24
-271 0z m235 -167 c26 -9 69 -36 96 -60 138 -124 121 -349 -35 -452 -192 -127
-447 9 -447 238 0 202 194 339 386 274z"/>
<path d="M14180 3440 l0 -80 78 0 c44 0 113 -3 155 -6 l77 -7 0 -373 0 -374
85 0 85 0 0 375 0 375 155 0 155 0 0 85 0 85 -395 0 -395 0 0 -80z"/>
<path d="M15665 3496 c-60 -28 -118 -86 -140 -139 -19 -47 -21 -139 -4 -196
16 -53 78 -125 133 -154 36 -19 62 -22 216 -27 189 -6 210 -11 235 -60 22 -43
18 -76 -14 -112 l-29 -33 -150 -3 c-172 -4 -203 5 -228 64 l-14 34 -85 0 -84
0 5 -32 c17 -91 76 -173 150 -208 41 -20 62 -22 232 -24 222 -1 254 7 325 83
47 50 77 123 77 186 0 100 -70 205 -162 245 -46 20 -75 24 -222 28 -167 5
-169 5 -200 32 -25 23 -31 36 -31 70 0 35 6 47 33 71 l32 29 159 0 c153 0 159
-1 184 -24 14 -13 29 -36 33 -50 6 -25 8 -26 91 -26 l86 0 -7 42 c-15 93 -89
181 -179 215 -20 7 -101 12 -212 12 -169 1 -183 -1 -230 -23z"/>
</g>
</svg>
